<?xml version="1.0" encoding="utf-8"?>
<!-- Generator: Adobe Illustrator 23.0.4, SVG Export Plug-In . SVG Version: 6.00 Build 0)  -->
<svg version="1.1" id="Layer_1" xmlns="http://www.w3.org/2000/svg" xmlns:xlink="http://www.w3.org/1999/xlink" x="0px" y="0px"
	 viewBox="0 0 694.5 637.6" style="enable-background:new 0 0 694.5 637.6;" xml:space="preserve">
<style type="text/css">
	.st0{fill:#FFFFFF;stroke:#4B2E83;stroke-width:8;stroke-miterlimit:10;}
	.st1{fill:none;stroke:#4B2E83;stroke-width:5;stroke-linecap:round;stroke-linejoin:round;}
	.st2{fill:none;stroke:#4B2E83;stroke-width:5;stroke-linecap:round;stroke-linejoin:round;stroke-dasharray:13.2203,13.2203;}
	.st3{fill:none;stroke:#4B2E83;stroke-width:5;stroke-linecap:round;stroke-linejoin:round;stroke-dasharray:11.5081,11.5081;}
	.st4{fill:none;stroke:#4B2E83;stroke-width:5;stroke-linecap:round;stroke-linejoin:round;stroke-dasharray:14.8081,14.8081;}
	.st5{fill:none;stroke:#4B2E83;stroke-width:5;stroke-linecap:round;stroke-linejoin:round;stroke-dasharray:10.886,10.886;}
	.st6{fill:none;stroke:#4B2E83;stroke-width:5;stroke-linecap:round;stroke-linejoin:round;stroke-dasharray:12.7785,12.7785;}
	
		.st7{fill:none;stroke:#4B2E83;stroke-width:5;stroke-linecap:round;stroke-linejoin:round;stroke-miterlimit:10;stroke-dasharray:12;}
	.st8{fill:#4B2E83;}
	.st9{font-family:'EncodeSansNormal-SemiBold';}
	.st10{font-size:32px;}
</style>
<g>
	<path class="st0" d="M302.7,167.8H135.8c-7,0-17.9,3.4-24.5,7.5l-92.9,58.6c-6.5,4.1-6.1,7.5,0.8,7.5h166.9c7,0,17.9-3.4,24.5-7.5
		l92.9-58.6C310,171.2,309.6,167.8,302.7,167.8z"/>
</g>
<g>
	<path class="st0" d="M669.9,48H503c-7,0-17.9,3.4-24.5,7.5l-92.9,58.6c-6.5,4.1-6.1,7.5,0.8,7.5h166.9c7,0,17.9-3.4,24.5-7.5
		l92.9-58.6C677.3,51.4,676.9,48,669.9,48z"/>
</g>
<g>
	<path class="st0" d="M657.8,230.8H490.9c-7,0-17.9,3.4-24.5,7.5l-92.9,58.6c-6.5,4.1-6.1,7.5,0.8,7.5h166.9c7,0,17.9-3.4,24.5-7.5
		l92.9-58.6C665.1,234.1,664.8,230.8,657.8,230.8z"/>
</g>
<g>
	<path class="st0" d="M648.6,405.6H481.7c-7,0-17.9,3.4-24.5,7.5l-92.9,58.6c-6.5,4.1-6.1,7.5,0.8,7.5h166.9c7,0,17.9-3.4,24.5-7.5
		l92.9-58.6C655.9,409,655.5,405.6,648.6,405.6z"/>
</g>
<g>
	<path class="st0" d="M310.2,343.3H143.3c-7,0-17.9,3.4-24.5,7.5L26,409.4c-6.5,4.1-6.1,7.5,0.8,7.5h166.9c7,0,17.9-3.4,24.5-7.5
		l92.9-58.6C317.6,346.7,317.2,343.3,310.2,343.3z"/>
</g>
<g>
	<path class="st0" d="M310.2,518.8H143.3c-7,0-17.9,3.4-24.5,7.5L26,584.9c-6.5,4.1-6.1,7.5,0.8,7.5h166.9c7,0,17.9-3.4,24.5-7.5
		l92.9-58.6C317.6,522.2,317.2,518.8,310.2,518.8z"/>
</g>
<g>
	<g>
		<line class="st1" x1="367.6" y1="121.6" x2="364.5" y2="125"/>
		<line class="st2" x1="357.6" y1="132.9" x2="333.5" y2="160.3"/>
		<polyline class="st1" points="330,164.3 326.9,167.8 328.2,173.8 		"/>
		<line class="st3" x1="330.8" y1="185.2" x2="354.8" y2="292.8"/>
		<polyline class="st1" points="356.1,298.4 357.4,304.3 354.5,308.5 		"/>
		<line class="st4" x1="347.5" y1="318.7" x2="336.9" y2="334.1"/>
		<polyline class="st1" points="333.4,339.2 330.5,343.3 331.3,349.5 		"/>
		<line class="st5" x1="332.6" y1="360.8" x2="345.2" y2="467.4"/>
		<polyline class="st1" points="345.9,473 346.6,479.2 344,483.9 		"/>
		<line class="st6" x1="338.7" y1="494" x2="330.7" y2="509.2"/>
		<line class="st1" x1="328.1" y1="514.1" x2="325.5" y2="518.8"/>
	</g>
</g>
<line class="st7" x1="99.5" y1="260.5" x2="99.5" y2="349.1"/>
<line class="st7" x1="99.5" y1="433.9" x2="99.5" y2="518.8"/>
<text transform="matrix(0.6518 0 0 1 506.8724 95.167)" class="st8 st9 st10">C01</text>
<text transform="matrix(0.6518 0 0 1 491.6375 276.717)" class="st8 st9 st10">C03</text>
<text transform="matrix(0.6518 0 0 1 484.02 453.1887)" class="st8 st9 st10">C05</text>
<text transform="matrix(0.6518 0 0 1 137.7481 213.9685)" class="st8 st9 st10">C02</text>
<text transform="matrix(0.6518 0 0 1 145.042 390.9792)" class="st8 st9 st10">C04</text>
<text transform="matrix(0.6518 0 0 1 145.0421 566.1814)" class="st8 st9 st10">C06</text>
</svg>
