<?xml version="1.0" encoding="utf-8"?>
<!-- Generator: Adobe Illustrator 23.0.4, SVG Export Plug-In . SVG Version: 6.00 Build 0)  -->
<svg version="1.1" id="Layer_1" xmlns="http://www.w3.org/2000/svg" xmlns:xlink="http://www.w3.org/1999/xlink" x="0px" y="0px"
	 viewBox="0 0 777 726" style="enable-background:new 0 0 777 726;" xml:space="preserve">
<style type="text/css">
	.st0{fill:none;stroke:#4B2E83;stroke-width:8;stroke-linecap:round;stroke-linejoin:round;stroke-miterlimit:10;}
	
		.st1{fill:none;stroke:#4B2E83;stroke-width:5;stroke-linecap:round;stroke-linejoin:round;stroke-miterlimit:10;stroke-dasharray:12;}
	.st2{fill:#4B2E83;}
	.st3{opacity:0.5;fill:none;stroke:#000000;stroke-width:8;stroke-linecap:round;stroke-miterlimit:10;stroke-dasharray:30;}
</style>
<polyline class="st0" points="110,679 334,679 373,640 545,640 "/>
<polyline class="st0" points="110,589 334,589 373,550 545,550 "/>
<polyline class="st0" points="110,499 334,499 373,460 545,460 "/>
<polyline class="st0" points="110,409 334,409 373,370 729,370 "/>
<polyline class="st0" points="110,319 334,319 373,280 729,280 "/>
<polyline class="st0" points="110,229 334,229 373,190 729,190 "/>
<polyline class="st0" points="110,139 334,139 373,100 545,100 "/>
<line class="st1" x1="340.5" y1="600.5" x2="366.5" y2="631.5"/>
<line class="st1" x1="340.5" y1="509.5" x2="362.5" y2="536.5"/>
<line class="st1" x1="340.5" y1="419.5" x2="362.5" y2="445.5"/>
<line class="st1" x1="340.5" y1="329.5" x2="362.5" y2="356.5"/>
<line class="st1" x1="340.5" y1="239.5" x2="362.5" y2="265.5"/>
<line class="st1" x1="340.5" y1="149.5" x2="362.5" y2="176.5"/>
<g>
	<path class="st2" d="M72.8,696c-4.7,0-8.3-1.5-10.8-4.6c-2.5-3-3.7-7.6-3.7-13.6c0-6.1,1.2-10.6,3.7-13.7c2.5-3.1,6.1-4.6,10.8-4.6
		c4.7,0,8.2,1.5,10.7,4.6c2.5,3.1,3.7,7.6,3.7,13.7c0,6-1.2,10.6-3.7,13.6C81,694.5,77.4,696,72.8,696z M72.8,690.5
		c2.6,0,4.6-1,5.8-3c1.2-2,1.9-5.2,1.9-9.8s-0.6-7.8-1.9-9.8s-3.2-3-5.8-3c-1.3,0-2.5,0.2-3.4,0.7c-1,0.5-1.8,1.2-2.4,2.3
		c-0.6,1-1.1,2.3-1.4,4c-0.3,1.6-0.5,3.6-0.5,5.8c0,4.5,0.6,7.8,1.9,9.8C68.1,689.5,70.1,690.5,72.8,690.5z"/>
</g>
<g>
	<path class="st2" d="M66.3,578.4h-0.2l-8.1,3.1h-0.4l-0.8-3.9v-0.3l11.1-6.2H73v35.5h-6.8V578.4z"/>
</g>
<g>
	<path class="st2" d="M58,510.5c0-1.7,0.3-3.2,0.8-4.5c0.5-1.3,1.2-2.4,2.2-3.5c0.9-1,2-1.9,3.3-2.8c1.3-0.8,2.7-1.6,4.3-2.4
		c2.2-1.2,3.9-2.3,5-3.3s1.7-2.3,1.7-3.8c0-1.7-0.6-3-1.7-3.8s-2.8-1.2-5.2-1.2c-1.4,0-2.9,0.1-4.4,0.4c-1.6,0.2-3,0.5-4.3,0.8
		l-0.6-5.5c2.2-0.4,4.2-0.8,5.9-1s3.3-0.3,4.9-0.3c4.2,0,7.2,0.8,9.2,2.5c2,1.6,3,4.1,3,7.5c0,1.4-0.2,2.7-0.6,3.8
		c-0.4,1.1-1,2.1-1.7,3.1c-0.8,0.9-1.7,1.8-2.7,2.6c-1.1,0.8-2.3,1.5-3.6,2.3c-1.2,0.7-2.4,1.4-3.4,2c-1,0.6-1.9,1.2-2.7,1.8
		c-0.8,0.6-1.3,1.2-1.8,1.8c-0.4,0.6-0.6,1.3-0.6,1.9v1.2h17.2v5.4H58V510.5z"/>
</g>
<g>
	<path class="st2" d="M66.9,426c-0.7,0-1.5,0-2.3,0c-0.8,0-1.6-0.1-2.3-0.1c-0.8-0.1-1.5-0.1-2.1-0.2c-0.7-0.1-1.2-0.2-1.7-0.3v-5.2
		h0.2c0.4,0.1,0.9,0.2,1.5,0.3c0.6,0.1,1.2,0.2,1.9,0.2c0.7,0.1,1.3,0.1,2,0.2c0.7,0,1.3,0,1.8,0c2.9,0,5-0.4,6.3-1.3
		c1.2-0.9,1.8-2.3,1.8-4.2c0-1.9-0.6-3.3-1.8-4.2c-1.2-0.8-3.4-1.3-6.5-1.3h-3.2v-4.8h3.2c2.7,0,4.6-0.4,5.8-1.2
		c1.1-0.8,1.7-2.1,1.7-4c0-1.8-0.5-3.1-1.6-3.9c-1.1-0.8-2.9-1.2-5.4-1.2c-0.9,0-2,0.1-3.3,0.2c-1.3,0.1-2.7,0.3-4,0.5h-0.2v-5.2
		c0.6-0.1,1.2-0.2,2-0.3c0.7-0.1,1.5-0.2,2.3-0.3s1.5-0.1,2.3-0.2c0.7,0,1.4-0.1,2-0.1c4.3,0,7.6,0.8,9.8,2.4c2.2,1.6,3.3,4,3.3,7.2
		c0,2-0.5,3.7-1.5,5.1c-1,1.4-2.5,2.4-4.4,2.9v0.3c2.2,0.4,3.9,1.4,5.1,2.9c1.2,1.5,1.8,3.3,1.8,5.5c0,3.4-1.2,5.9-3.6,7.7
		S71.5,426,66.9,426z"/>
</g>
<g>
	<path class="st2" d="M56.9,324v-0.4l11.9-24.1h0.2l6.6,0.7l0.2,0.6l-11.9,21.8v0.2H74l1.6-10.2h4.8v10.2h5.3v5.2h-5.3v7.5h-6.7V328
		h-16L56.9,324z"/>
</g>
<g>
	<path class="st2" d="M66.7,246.1c-1.3,0-2.7-0.1-4.1-0.2c-1.4-0.1-2.8-0.3-4.2-0.6v-5.2h1.4c1.1,0.2,2.2,0.4,3.2,0.5
		c1,0.1,2,0.1,3,0.1c2.8,0,4.9-0.4,6.3-1.3c1.4-0.9,2.1-2.5,2.1-4.8c0-1-0.2-1.9-0.6-2.6c-0.4-0.7-1-1.2-1.9-1.7
		c-0.9-0.4-2-0.7-3.4-0.9c-1.4-0.2-3.1-0.3-5.1-0.3h-3.6l-0.6-0.6l1.4-18.6h19.2v5.4H65.4l-0.5,8.8c2.8,0,5.2,0.2,7.3,0.6
		c2.1,0.4,3.8,1,5.1,1.8c1.4,0.8,2.4,1.9,3,3.3c0.7,1.3,1,3,1,5c0,2.1-0.4,3.8-1.2,5.2c-0.8,1.4-1.8,2.6-3.1,3.5
		c-1.3,0.9-2.9,1.5-4.6,1.9S68.8,246.1,66.7,246.1z"/>
</g>
<g>
	<path class="st2" d="M72.3,156c-4.6,0-8.1-1.4-10.4-4.1c-2.4-2.8-3.6-6.8-3.6-12.3c0-6.6,1.5-11.6,4.6-15c3.1-3.4,7.6-5.2,13.5-5.2
		c2.2,0,4.6,0.3,7.2,0.9l-0.7,5c-1.3-0.3-2.4-0.5-3.4-0.6c-1-0.1-1.9-0.2-2.9-0.2c-3.5,0-6.2,0.9-8,2.8c-1.9,1.9-3,4.8-3.4,8.8
		c1.1-0.9,2.4-1.7,4-2.2c1.5-0.5,3.1-0.8,4.7-0.8c1.8,0,3.5,0.2,4.9,0.7c1.5,0.5,2.7,1.2,3.8,2.1c1,0.9,1.8,2,2.4,3.3
		c0.6,1.3,0.8,2.8,0.8,4.4c0,1.9-0.3,3.6-0.9,5.1c-0.6,1.5-1.5,2.8-2.7,3.8c-1.2,1.1-2.6,1.9-4.3,2.4C76.2,155.7,74.4,156,72.3,156z
		 M72.3,137.7c-1.3,0-2.6,0.3-3.9,0.8c-1.3,0.5-2.4,1.2-3.3,2.1c0.1,3.6,0.7,6.3,1.9,7.9c1.2,1.7,3,2.5,5.4,2.5
		c2.1,0,3.7-0.6,4.9-1.8c1.2-1.2,1.7-3,1.7-5.2c0-2.1-0.6-3.6-1.7-4.7C76.1,138.2,74.4,137.7,72.3,137.7z"/>
</g>
<g>
	<path class="st2" d="M222.7,30h7.2l5.1,22.2l1.2,6.4h0.5l1.5-6.4l5.9-22.2h6.9l5.8,22.2l1.4,6.4h0.5l1.3-6.4l5.1-22.2h7.2
		l-9.2,35.5h-9l-5.2-19.6l-1.2-7.4h-0.4L246,46l-5.3,19.5h-9L222.7,30z"/>
</g>
<g>
	<path class="st2" d="M464.2,66c-5.8,0-10.1-1.5-12.9-4.5c-2.8-3-4.2-7.6-4.2-13.8c0-6.2,1.4-10.8,4.2-13.8c2.8-3,7-4.5,12.6-4.5
		c1.1,0,2.3,0.1,3.7,0.2c1.4,0.1,2.9,0.3,4.5,0.6v5.5c-0.9-0.1-1.7-0.2-2.4-0.3c-0.7-0.1-1.3-0.1-1.9-0.2c-0.6,0-1.1-0.1-1.6-0.1
		c-0.5,0-1,0-1.5,0c-1.9,0-3.6,0.2-4.9,0.7c-1.4,0.4-2.5,1.2-3.3,2.2c-0.8,1-1.4,2.3-1.8,3.9c-0.4,1.6-0.6,3.6-0.6,5.9
		c0,2.3,0.2,4.3,0.6,5.9c0.4,1.6,1,2.9,1.8,3.9c0.8,1,1.9,1.7,3.2,2.2c1.3,0.4,2.9,0.7,4.8,0.7c0.5,0,1.1,0,1.8-0.1
		c0.7,0,1.4-0.1,2.1-0.2c0.7-0.1,1.4-0.2,2-0.3c0.7-0.1,1.2-0.2,1.7-0.3v5.5c-1.1,0.3-2.4,0.5-3.8,0.7C466.8,65.9,465.5,66,464.2,66
		z"/>
</g>
<g>
	<path class="st2" d="M618.7,30h24.6v5.4h-17.8v9.6h16.3v5.4h-16.3v9.8h18.2v5.4h-25.1V30z"/>
</g>
<line class="st3" x1="328" y1="30" x2="328" y2="711"/>
<line class="st3" x1="545" y1="30" x2="545" y2="711"/>
<g>
</g>
<g>
</g>
<g>
</g>
<g>
</g>
<g>
</g>
<g>
</g>
<g>
</g>
<g>
</g>
<g>
</g>
<g>
</g>
<g>
</g>
<g>
</g>
<g>
</g>
<g>
</g>
<g>
</g>
</svg>
