<?xml version="1.0" encoding="utf-8"?>
<!-- Generator: Adobe Illustrator 23.0.4, SVG Export Plug-In . SVG Version: 6.00 Build 0)  -->
<svg version="1.1" id="Layer_1" xmlns="http://www.w3.org/2000/svg" xmlns:xlink="http://www.w3.org/1999/xlink" x="0px" y="0px"
	 viewBox="0 0 672 630" style="enable-background:new 0 0 672 630;" xml:space="preserve">
<style type="text/css">
	.st0{fill:none;stroke:#4B2E83;stroke-width:8;stroke-linecap:round;stroke-linejoin:round;stroke-miterlimit:10;}
	.st1{fill:#4B2E83;}
</style>
<polyline class="st0" points="230.5,59.1 64,59.1 64,103.8 "/>
<polyline class="st0" points="277.1,163.5 64,163.5 64,122.6 "/>
<polyline class="st0" points="277.6,241.1 111.1,241.1 111.1,285.8 "/>
<polyline class="st0" points="324.2,345.6 111.1,345.6 111.1,304.6 "/>
<line class="st0" x1="170.3" y1="427.7" x2="403" y2="427.7"/>
<line class="st0" x1="170.3" y1="539.6" x2="492.2" y2="539.6"/>
<g>
	<path class="st1" d="M562.2,528.5h2.8l13.6,16.8l2.1,2.9h0.3v-19.7h2.9v24.2h-2.8l-13.7-16.8l-2-2.8l-0.2,0v19.7h-2.9V528.5z"/>
	<path class="st1" d="M588.7,549.4c0-1.1,0.2-2,0.5-2.9c0.3-0.8,0.8-1.6,1.4-2.3c0.6-0.7,1.4-1.4,2.4-2c0.9-0.6,2-1.2,3.3-1.9
		c1.9-0.9,3.3-1.8,4.1-2.7c0.8-0.8,1.3-1.8,1.3-2.9c0-2.7-1.8-4-5.4-4c-1,0-2,0.1-3.1,0.2c-1.1,0.2-2.2,0.4-3.3,0.6l-0.4-2.5
		c1.4-0.3,2.7-0.5,3.9-0.7c1.2-0.1,2.3-0.2,3.4-0.2c5.4,0,8,2.1,8,6.4c0,0.8-0.1,1.6-0.4,2.3s-0.6,1.3-1.2,1.9
		c-0.5,0.6-1.2,1.2-2,1.7s-1.8,1.1-2.9,1.7c-2.2,1.2-3.8,2.2-4.8,3.2c-1,1-1.5,2.1-1.5,3.3v1.4h12.9v2.4h-16.2V549.4z"/>
	<path class="st1" d="M614.7,531.9h-0.1l-6.2,2.8h-0.3l-0.5-1.7v-0.2l7.9-4.2h2.4v24.2h-3.2V531.9z"/>
</g>
<g>
	<path class="st1" d="M562.2,427.5h2.8l13.6,16.8l2.1,2.9h0.3v-19.7h2.9v24.2h-2.8l-13.7-16.8l-2-2.8l-0.2,0v19.7h-2.9V427.5z"/>
	<path class="st1" d="M588.7,448.4c0-1.1,0.2-2,0.5-2.9c0.3-0.8,0.8-1.6,1.4-2.3c0.6-0.7,1.4-1.4,2.4-2c0.9-0.6,2-1.2,3.3-1.9
		c1.9-0.9,3.3-1.8,4.1-2.7c0.8-0.8,1.3-1.8,1.3-2.9c0-2.7-1.8-4-5.4-4c-1,0-2,0.1-3.1,0.2c-1.1,0.2-2.2,0.4-3.3,0.6l-0.4-2.5
		c1.4-0.3,2.7-0.5,3.9-0.7c1.2-0.1,2.3-0.2,3.4-0.2c5.4,0,8,2.1,8,6.4c0,0.8-0.1,1.6-0.4,2.3s-0.6,1.3-1.2,1.9
		c-0.5,0.6-1.2,1.2-2,1.7s-1.8,1.1-2.9,1.7c-2.2,1.2-3.8,2.2-4.8,3.2c-1,1-1.5,2.1-1.5,3.3v1.4h12.9v2.4h-16.2V448.4z"/>
	<path class="st1" d="M618.7,452c-3.3,0-5.7-1-7.4-3.1c-1.7-2.1-2.5-5.2-2.5-9.3s0.8-7.2,2.5-9.3c1.7-2.1,4.2-3.1,7.4-3.1
		c3.2,0,5.7,1,7.4,3.1c1.7,2.1,2.5,5.2,2.5,9.3s-0.8,7.2-2.5,9.3C624.4,451,622,452,618.7,452z M618.7,449.6c2.2,0,3.9-0.8,5-2.4
		c1.1-1.6,1.7-4.1,1.7-7.5c0-3.4-0.6-5.9-1.7-7.6c-1.1-1.6-2.8-2.4-5-2.4c-2.3,0-4,0.8-5.1,2.4c-1.1,1.6-1.7,4.1-1.7,7.6
		c0,3.4,0.6,5.9,1.7,7.5C614.7,448.8,616.4,449.6,618.7,449.6z"/>
</g>
<g>
	<path class="st1" d="M562.2,280.6h2.8l13.6,16.8l2.1,2.9h0.3v-19.7h2.9v24.2h-2.8l-13.7-16.8l-2-2.8l-0.2,0v19.7h-2.9V280.6z"/>
	<path class="st1" d="M594.9,284h-0.1l-6.2,2.8h-0.3l-0.5-1.7v-0.2l7.9-4.2h2.4v24.2h-3.2V284z"/>
	<path class="st1" d="M612.7,304.9c-3,0-5.3-0.5-6.9-1.6c-1.6-1.1-2.4-2.7-2.4-4.8c0-0.9,0.1-1.8,0.4-2.4c0.3-0.7,0.7-1.3,1.1-1.8
		c0.5-0.5,1-0.9,1.5-1.3c0.6-0.3,1.1-0.6,1.6-0.8c-0.6-0.3-1.1-0.6-1.6-0.9c-0.5-0.3-0.9-0.7-1.3-1.2c-0.4-0.5-0.6-1-0.8-1.6
		c-0.2-0.6-0.3-1.3-0.3-2c0-1,0.2-1.9,0.6-2.7c0.4-0.8,1-1.4,1.8-1.9s1.7-0.9,2.7-1.2s2.2-0.4,3.4-0.4c1.2,0,2.4,0.1,3.4,0.4
		s1.9,0.7,2.6,1.2s1.3,1.2,1.7,1.9c0.4,0.8,0.6,1.7,0.6,2.7c0,0.8-0.1,1.6-0.4,2.2c-0.2,0.6-0.6,1.2-1,1.7c-0.4,0.5-0.8,0.9-1.3,1.2
		c-0.5,0.3-1,0.6-1.5,0.9c0.7,0.3,1.4,0.6,2,0.9c0.6,0.3,1.1,0.7,1.6,1.2c0.4,0.5,0.8,1,1.1,1.7c0.3,0.6,0.4,1.4,0.4,2.2
		c0,2.1-0.8,3.7-2.4,4.8C617.9,304.4,615.6,304.9,612.7,304.9z M610.7,293.1c-0.4,0.2-0.8,0.4-1.3,0.6s-0.9,0.6-1.4,1
		c-0.4,0.4-0.8,0.9-1.1,1.5c-0.3,0.6-0.4,1.3-0.4,2.1c0,1.5,0.6,2.6,1.7,3.3c1.1,0.7,2.6,1.1,4.5,1.1c1.8,0,3.3-0.4,4.5-1.1
		c1.1-0.7,1.7-1.8,1.7-3.1c0-0.8-0.2-1.4-0.5-2c-0.3-0.5-0.8-1-1.4-1.4c-0.6-0.4-1.3-0.7-2-0.9c-0.8-0.3-1.6-0.5-2.5-0.7
		L610.7,293.1z M607.2,286.6c0,0.8,0.2,1.4,0.5,2c0.3,0.5,0.8,1,1.4,1.4c0.6,0.4,1.3,0.7,2.1,1c0.8,0.3,1.6,0.5,2.5,0.7l0.5,0.1
		c0.4-0.2,0.8-0.4,1.2-0.7c0.5-0.3,0.9-0.6,1.3-1c0.4-0.4,0.7-0.9,1-1.5c0.3-0.6,0.4-1.2,0.4-1.9c0-1.4-0.5-2.4-1.5-3.1
		c-1-0.7-2.3-1-3.9-1c-1.6,0-2.9,0.3-3.9,1S607.2,285.2,607.2,286.6z"/>
</g>
<g>
	<path class="st1" d="M562.2,98h2.8l13.6,16.8l2.1,2.9h0.3V98h2.9v24.2h-2.8l-13.7-16.8l-2-2.8l-0.2,0v19.7h-2.9V98z"/>
	<path class="st1" d="M594.9,101.3h-0.1l-6.2,2.8h-0.3l-0.5-1.7v-0.2l7.9-4.2h2.4v24.2h-3.2V101.3z"/>
	<path class="st1" d="M613.2,122.5c-3.2,0-5.6-0.9-7.2-2.8c-1.6-1.8-2.4-4.6-2.4-8.3c0-2.2,0.3-4.2,0.8-5.9s1.3-3.2,2.4-4.3
		s2.3-2.1,3.9-2.7c1.5-0.6,3.3-0.9,5.3-0.9c0.7,0,1.5,0,2.3,0.1c0.8,0.1,1.6,0.2,2.5,0.4l-0.3,2.3c-0.9-0.2-1.7-0.3-2.4-0.4
		c-0.7-0.1-1.4-0.1-2.1-0.1c-2.8,0-4.9,0.8-6.4,2.5c-1.5,1.6-2.4,4.1-2.7,7.2c1-0.7,2.1-1.3,3.3-1.7c1.2-0.4,2.4-0.6,3.7-0.6
		c1.3,0,2.5,0.2,3.6,0.5c1.1,0.3,2,0.8,2.7,1.4c0.7,0.6,1.3,1.4,1.7,2.2c0.4,0.9,0.6,1.9,0.6,3c0,1.2-0.2,2.4-0.6,3.4
		c-0.4,1-1,1.9-1.8,2.6c-0.8,0.7-1.8,1.3-2.9,1.6C615.8,122.3,614.6,122.5,613.2,122.5z M613.2,109.4c-1.1,0-2.3,0.2-3.4,0.7
		c-1.2,0.4-2.2,1-3,1.8c0,2.9,0.6,5,1.6,6.4c1,1.3,2.7,2,4.8,2c1.8,0,3.3-0.5,4.3-1.6c1.1-1,1.6-2.5,1.6-4.3c0-1.6-0.5-2.9-1.5-3.7
		C616.5,109.8,615,109.4,613.2,109.4z"/>
</g>
<g>
	<path class="st1" d="M327.8,75.7c-1.7,0-3.2-0.2-4.4-0.6c-1.2-0.4-2.2-1-3-1.8c-0.8-0.8-1.4-1.9-1.7-3.1c-0.4-1.3-0.6-2.8-0.6-4.6
		V51.2h2.9v14.3c0,2.7,0.6,4.7,1.7,5.9c1.1,1.2,2.9,1.8,5.1,1.8s4-0.6,5.1-1.8c1.1-1.2,1.7-3.1,1.7-5.9V51.2h3v14.4
		c0,1.8-0.2,3.3-0.6,4.6c-0.4,1.3-1,2.3-1.7,3.1c-0.8,0.8-1.8,1.4-3,1.8C331,75.5,329.5,75.7,327.8,75.7z"/>
	<path class="st1" d="M342.7,57.8h2.5l0.2,2.1h0.2c1.3-1.6,3.1-2.4,5.6-2.4c2.4,0,4.2,0.7,5.5,2.2c1.2,1.4,1.9,3.7,1.9,6.8
		c0,3-0.8,5.4-2.3,7c-1.5,1.6-3.7,2.4-6.5,2.4c-0.8,0-1.5,0-2.2-0.1s-1.3-0.1-1.9-0.2v7.1h-2.9V57.8z M349.8,73.5
		c1.9,0,3.4-0.5,4.4-1.6c1-1.1,1.5-2.9,1.5-5.4c0-2.5-0.4-4.2-1.2-5.3c-0.8-1-2.1-1.6-3.9-1.6c-0.7,0-1.3,0.1-1.9,0.3
		c-0.6,0.2-1.1,0.4-1.6,0.8s-0.8,0.8-1.1,1.2c-0.3,0.5-0.4,1-0.4,1.6v9.5c0.5,0.1,1.2,0.2,1.9,0.2C348.3,73.5,349,73.5,349.8,73.5z"
		/>
	<path class="st1" d="M362.6,57.8h2.5l0.2,2.1h0.2c1.3-1.6,3.1-2.4,5.6-2.4c2.4,0,4.2,0.7,5.5,2.2c1.2,1.4,1.9,3.7,1.9,6.8
		c0,3-0.8,5.4-2.3,7c-1.5,1.6-3.7,2.4-6.5,2.4c-0.8,0-1.5,0-2.2-0.1s-1.3-0.1-1.9-0.2v7.1h-2.9V57.8z M369.7,73.5
		c1.9,0,3.4-0.5,4.4-1.6c1-1.1,1.5-2.9,1.5-5.4c0-2.5-0.4-4.2-1.2-5.3c-0.8-1-2.1-1.6-3.9-1.6c-0.7,0-1.3,0.1-1.9,0.3
		c-0.6,0.2-1.1,0.4-1.6,0.8s-0.8,0.8-1.1,1.2c-0.3,0.5-0.4,1-0.4,1.6v9.5c0.5,0.1,1.2,0.2,1.9,0.2C368.2,73.5,368.9,73.5,369.7,73.5
		z"/>
	<path class="st1" d="M389.8,75.7c-2.7,0-4.8-0.7-6.2-2.2s-2.1-3.7-2.1-6.6c0-3,0.7-5.3,2.1-6.9c1.4-1.6,3.4-2.4,6-2.4
		c4.5,0,6.8,2.6,6.8,7.9c0,1-0.1,1.8-0.2,2.3h-11.7c0.1,2,0.6,3.5,1.5,4.4c0.9,0.9,2.3,1.3,4.2,1.3c0.8,0,1.7-0.1,2.7-0.2
		c0.9-0.2,1.9-0.4,2.8-0.7l0.2,2.2c-0.9,0.3-1.8,0.6-2.9,0.8C391.8,75.6,390.8,75.7,389.8,75.7z M389.6,59.7c-3.2,0-4.8,2-5.1,5.9
		h9.3c0-2.1-0.3-3.7-1-4.6C392.1,60.2,391,59.7,389.6,59.7z"/>
	<path class="st1" d="M400.4,57.8h2.4l0.2,2.4h0.1c1.2-0.7,2.4-1.3,3.4-1.7c1-0.5,2-0.8,2.9-1h0.9v2.7h-1c-1,0.1-2,0.4-3,0.8
		c-1,0.4-2,0.8-3,1.3v13.1h-2.9V57.8z"/>
</g>
<g>
	<path class="st1" d="M318.3,148.2h2.9v21.7h11.1v2.4h-14V148.2z"/>
	<path class="st1" d="M341.9,172.6c-2.7,0-4.7-0.8-6.1-2.4c-1.4-1.6-2.1-3.8-2.1-6.8c0-3,0.7-5.3,2.1-6.8c1.4-1.6,3.4-2.3,6.1-2.3
		c2.7,0,4.7,0.8,6.1,2.3c1.4,1.6,2.1,3.8,2.1,6.8s-0.7,5.3-2.1,6.8C346.6,171.9,344.5,172.6,341.9,172.6z M341.9,170.3
		c1.8,0,3.2-0.5,4-1.6c0.8-1.1,1.3-2.8,1.3-5.2c0-2.4-0.4-4.1-1.3-5.2c-0.8-1.1-2.2-1.6-4-1.6c-1.8,0-3.2,0.5-4,1.6
		c-0.9,1.1-1.3,2.8-1.3,5.2c0,2.4,0.4,4.1,1.3,5.2C338.7,169.8,340,170.3,341.9,170.3z"/>
	<path class="st1" d="M352.2,154.9v-0.2h2.8l3.2,12.1l0.6,2.6h0.2l0.6-2.6l3.5-12.1h2.8l3.6,12.1l0.7,2.6h0.2l0.6-2.6l3-12.1h2.8
		v0.2l-4.8,17.4h-3.3l-3.6-11.9l-0.6-2.4h-0.2l-0.6,2.4l-3.4,11.9h-3.3L352.2,154.9z"/>
	<path class="st1" d="M387.3,172.6c-2.7,0-4.8-0.7-6.2-2.2s-2.1-3.7-2.1-6.6c0-3,0.7-5.3,2.1-6.9c1.4-1.6,3.4-2.4,6-2.4
		c4.5,0,6.8,2.6,6.8,7.9c0,1-0.1,1.8-0.2,2.3H382c0.1,2,0.6,3.5,1.5,4.4c0.9,0.9,2.3,1.3,4.2,1.3c0.8,0,1.7-0.1,2.7-0.2
		c0.9-0.2,1.9-0.4,2.8-0.7l0.2,2.2c-0.9,0.3-1.8,0.6-2.9,0.8C389.3,172.5,388.3,172.6,387.3,172.6z M387.1,156.6
		c-3.2,0-4.8,2-5.1,5.9h9.3c0-2.1-0.3-3.7-1-4.6C389.6,157.1,388.5,156.6,387.1,156.6z"/>
	<path class="st1" d="M397.9,154.7h2.4l0.2,2.4h0.1c1.2-0.7,2.4-1.3,3.4-1.7c1-0.5,2-0.8,2.9-1h0.9v2.7h-1c-1,0.1-2,0.4-3,0.8
		c-1,0.4-2,0.8-3,1.3v13.1h-2.9V154.7z"/>
</g>
<g>
	<path class="st1" d="M385.4,256.3c-1.7,0-3.2-0.2-4.4-0.6c-1.2-0.4-2.2-1-3-1.8c-0.8-0.8-1.4-1.9-1.7-3.1c-0.4-1.3-0.6-2.8-0.6-4.6
		v-14.4h2.9v14.3c0,2.7,0.6,4.7,1.7,5.9c1.1,1.2,2.9,1.8,5.1,1.8c2.3,0,4-0.6,5.1-1.8s1.7-3.1,1.7-5.9v-14.3h3v14.4
		c0,1.8-0.2,3.3-0.6,4.6c-0.4,1.3-1,2.3-1.7,3.1c-0.8,0.8-1.8,1.4-3,1.8S387.1,256.3,385.4,256.3z"/>
	<path class="st1" d="M400.3,238.4h2.5l0.2,2.1h0.2c1.3-1.6,3.1-2.4,5.6-2.4c2.4,0,4.2,0.7,5.5,2.2c1.2,1.4,1.9,3.7,1.9,6.8
		c0,3-0.8,5.4-2.3,7c-1.5,1.6-3.7,2.4-6.5,2.4c-0.8,0-1.5,0-2.2-0.1s-1.3-0.1-1.9-0.2v7.1h-2.9V238.4z M407.4,254.1
		c1.9,0,3.4-0.5,4.4-1.6c1-1.1,1.5-2.9,1.5-5.4c0-2.5-0.4-4.2-1.2-5.3c-0.8-1-2.1-1.6-3.9-1.6c-0.7,0-1.3,0.1-1.9,0.3
		c-0.6,0.2-1.1,0.4-1.6,0.8s-0.8,0.8-1.1,1.2c-0.3,0.5-0.4,1-0.4,1.6v9.5c0.5,0.1,1.2,0.2,1.9,0.2
		C405.8,254.1,406.6,254.1,407.4,254.1z"/>
	<path class="st1" d="M420.2,238.4h2.5l0.2,2.1h0.2c1.3-1.6,3.1-2.4,5.6-2.4c2.4,0,4.2,0.7,5.5,2.2c1.2,1.4,1.9,3.7,1.9,6.8
		c0,3-0.8,5.4-2.3,7c-1.5,1.6-3.7,2.4-6.5,2.4c-0.8,0-1.5,0-2.2-0.1s-1.3-0.1-1.9-0.2v7.1h-2.9V238.4z M427.3,254.1
		c1.9,0,3.4-0.5,4.4-1.6c1-1.1,1.5-2.9,1.5-5.4c0-2.5-0.4-4.2-1.2-5.3c-0.8-1-2.1-1.6-3.9-1.6c-0.7,0-1.3,0.1-1.9,0.3
		c-0.6,0.2-1.1,0.4-1.6,0.8s-0.8,0.8-1.1,1.2c-0.3,0.5-0.4,1-0.4,1.6v9.5c0.5,0.1,1.2,0.2,1.9,0.2
		C425.7,254.1,426.5,254.1,427.3,254.1z"/>
	<path class="st1" d="M447.4,256.3c-2.7,0-4.8-0.7-6.2-2.2s-2.1-3.7-2.1-6.6c0-3,0.7-5.3,2.1-6.9c1.4-1.6,3.4-2.4,6-2.4
		c4.5,0,6.8,2.6,6.8,7.9c0,1-0.1,1.8-0.2,2.3h-11.7c0.1,2,0.6,3.5,1.5,4.4c0.9,0.9,2.3,1.3,4.2,1.3c0.8,0,1.7-0.1,2.7-0.2
		c0.9-0.2,1.9-0.4,2.8-0.7l0.2,2.2c-0.9,0.3-1.8,0.6-2.9,0.8C449.4,256.2,448.4,256.3,447.4,256.3z M447.1,240.3
		c-3.2,0-4.8,2-5.1,5.9h9.3c0-2.1-0.3-3.7-1-4.6C449.7,240.7,448.6,240.3,447.1,240.3z"/>
	<path class="st1" d="M458,238.4h2.4l0.2,2.4h0.1c1.2-0.7,2.4-1.3,3.4-1.7c1-0.5,2-0.8,2.9-1h0.9v2.7h-1c-1,0.1-2,0.4-3,0.8
		c-1,0.4-2,0.8-3,1.3V256H458V238.4z"/>
</g>
<g>
	<path class="st1" d="M375.9,328.7h2.9v21.7h11.1v2.4h-14V328.7z"/>
	<path class="st1" d="M399.4,353.2c-2.7,0-4.7-0.8-6.1-2.4c-1.4-1.6-2.1-3.8-2.1-6.8c0-3,0.7-5.3,2.1-6.8c1.4-1.6,3.4-2.3,6.1-2.3
		c2.7,0,4.7,0.8,6.1,2.3c1.4,1.6,2.1,3.8,2.1,6.8s-0.7,5.3-2.1,6.8C404.2,352.4,402.1,353.2,399.4,353.2z M399.4,350.9
		c1.8,0,3.2-0.5,4-1.6c0.8-1.1,1.3-2.8,1.3-5.2s-0.4-4.1-1.3-5.2c-0.8-1.1-2.2-1.6-4-1.6c-1.8,0-3.2,0.5-4,1.6s-1.3,2.8-1.3,5.2
		s0.4,4.1,1.3,5.2C396.3,350.3,397.6,350.9,399.4,350.9z"/>
	<path class="st1" d="M409.8,335.5v-0.2h2.8l3.2,12.1l0.6,2.6h0.2l0.6-2.6l3.5-12.1h2.8l3.6,12.1l0.7,2.6h0.2l0.6-2.6l3-12.1h2.8
		v0.2l-4.8,17.4h-3.3l-3.6-11.9l-0.6-2.4H422l-0.6,2.4l-3.4,11.9h-3.3L409.8,335.5z"/>
	<path class="st1" d="M444.9,353.2c-2.7,0-4.8-0.7-6.2-2.2c-1.4-1.5-2.1-3.7-2.1-6.6c0-3,0.7-5.3,2.1-6.9c1.4-1.6,3.4-2.4,6-2.4
		c4.5,0,6.8,2.6,6.8,7.9c0,1-0.1,1.8-0.2,2.3h-11.7c0.1,2,0.6,3.5,1.5,4.4s2.3,1.3,4.2,1.3c0.8,0,1.7-0.1,2.7-0.2
		c0.9-0.2,1.9-0.4,2.8-0.7l0.2,2.2c-0.9,0.3-1.8,0.6-2.9,0.8C446.9,353.1,445.9,353.2,444.9,353.2z M444.6,337.2
		c-3.2,0-4.8,2-5.1,5.9h9.3c0-2.1-0.3-3.7-1-4.6C447.2,337.6,446.1,337.2,444.6,337.2z"/>
	<path class="st1" d="M455.5,335.3h2.4l0.2,2.4h0.1c1.2-0.7,2.4-1.3,3.4-1.7c1-0.5,2-0.8,2.9-1h0.9v2.7h-1c-1,0.1-2,0.4-3,0.8
		c-1,0.4-2,0.8-3,1.3v13.1h-2.9V335.3z"/>
</g>
<g>
</g>
<g>
</g>
<g>
</g>
<g>
</g>
<g>
</g>
<g>
</g>
<g>
</g>
<g>
</g>
<g>
</g>
<g>
</g>
<g>
</g>
<g>
</g>
<g>
</g>
<g>
</g>
<g>
</g>
</svg>
