<svg id="Layer_1" data-name="Layer 1" xmlns="http://www.w3.org/2000/svg" viewBox="0 0 312.51 226.34">
  <defs>
    <style>
      .cls-1 {
        fill: #fff;
        stroke: #4b2e83;
        stroke-miterlimit: 10;
        stroke-width: 8px;
      }

      .cls-2 {
        isolation: isolate;
      }

      .cls-3 {
        fill: #4b2e83;
      }
    </style>
  </defs>
  <title>W21.23</title>
  <path class="cls-1" d="M319.3,50.66H146.6c-7.2,0-18.6,4.28-25.3,9.49L25.2,134.76c-6.7,5.21-6.3,9.49.9,9.49H198.8c7.2,0,18.6-4.28,25.3-9.49l96.1-74.61C326.8,54.94,326.5,50.66,319.3,50.66Z" transform="translate(-16.43 -46.66)"/>
  <path class="cls-1" d="M319.3,175.41H146.6c-7.2,0-18.6,4.28-25.3,9.49L25.2,259.51c-6.7,5.21-6.3,9.49.9,9.49H198.8c7.2,0,18.6-4.28,25.3-9.49l96.1-74.61C326.8,179.69,326.5,175.41,319.3,175.41Z" transform="translate(-16.43 -46.66)"/>
  <g class="cls-2">
    <path class="cls-3" d="M134.39,83.82h5l3.49,16.1.86,4.66H144l1-4.66,4-16.1h4.71l4,16.1,1,4.66h.33l.89-4.66,3.53-16.1h5l-6.32,25.73H156L152.4,95.36,151.54,90h-.26l-.86,5.39-3.62,14.15h-6.16Z" transform="translate(-16.43 -46.66)"/>
    <path class="cls-3" d="M170.21,105.9a9.42,9.42,0,0,1,.53-3.29,8,8,0,0,1,1.48-2.5,11.79,11.79,0,0,1,2.29-2,34.32,34.32,0,0,1,3-1.77,15.67,15.67,0,0,0,3.41-2.4A3.83,3.83,0,0,0,182,91.16a3.26,3.26,0,0,0-1.13-2.75,5.84,5.84,0,0,0-3.54-.87,19.33,19.33,0,0,0-3.05.26c-1.07.18-2.06.38-3,.61l-.4-4c1.54-.32,2.9-.55,4.07-.69a28.37,28.37,0,0,1,3.34-.21q4.29,0,6.31,1.79a6.84,6.84,0,0,1,2,5.41,8.35,8.35,0,0,1-.41,2.74,7.69,7.69,0,0,1-1.18,2.23,10.36,10.36,0,0,1-1.88,1.86,21.51,21.51,0,0,1-2.49,1.65c-.85.51-1.64,1-2.35,1.44a15.72,15.72,0,0,0-1.84,1.34,6.14,6.14,0,0,0-1.21,1.34,2.63,2.63,0,0,0-.42,1.41v.9h11.78v3.89H170.21Z" transform="translate(-16.43 -46.66)"/>
    <path class="cls-3" d="M195.37,89.18h-.13l-5.53,2.22h-.3l-.56-2.81v-.25l7.64-4.52H200v25.73h-4.64Z" transform="translate(-16.43 -46.66)"/>
  </g>
  <g class="cls-2">
    <path class="cls-3" d="M134.39,209.51h5l3.49,16.09.86,4.66H144l1-4.66,4-16.09h4.71l4,16.09,1,4.66h.33l.89-4.66,3.53-16.09h5l-6.32,25.72H156l-3.59-14.18-.86-5.36h-.26l-.86,5.39-3.62,14.15h-6.16Z" transform="translate(-16.43 -46.66)"/>
    <path class="cls-3" d="M170.21,231.58a9.42,9.42,0,0,1,.53-3.29,8.07,8.07,0,0,1,1.48-2.5,12.13,12.13,0,0,1,2.29-2,34.32,34.32,0,0,1,3-1.77,15,15,0,0,0,3.41-2.4,3.82,3.82,0,0,0,1.13-2.78,3.26,3.26,0,0,0-1.13-2.75,5.91,5.91,0,0,0-3.54-.86,18.21,18.21,0,0,0-3.05.26c-1.07.17-2.06.37-3,.6l-.4-4c1.54-.33,2.9-.56,4.07-.7a28.37,28.37,0,0,1,3.34-.21q4.29,0,6.31,1.79a6.86,6.86,0,0,1,2,5.41,8.35,8.35,0,0,1-.41,2.74,7.57,7.57,0,0,1-1.18,2.23,10.36,10.36,0,0,1-1.88,1.86,21.51,21.51,0,0,1-2.49,1.65c-.85.51-1.64,1-2.35,1.44a17,17,0,0,0-1.84,1.34,6.14,6.14,0,0,0-1.21,1.34,2.63,2.63,0,0,0-.42,1.41v.9h11.78v3.9H170.21Z" transform="translate(-16.43 -46.66)"/>
    <path class="cls-3" d="M195.8,235.61l-1.58,0c-.55,0-1.08-.06-1.6-.11s-1-.1-1.45-.17-.84-.14-1.17-.21v-3.75h.13a9.77,9.77,0,0,0,1,.19l1.31.17c.46.06.92.1,1.37.12s.86,0,1.23,0a7.3,7.3,0,0,0,4.3-1,3.57,3.57,0,0,0,1.27-3.07,3.46,3.46,0,0,0-1.27-3c-.84-.61-2.32-.92-4.43-.92h-2.2v-3.48h2.17a6.68,6.68,0,0,0,4-.88,3.4,3.4,0,0,0,1.15-2.87,3.34,3.34,0,0,0-1.12-2.82,6.13,6.13,0,0,0-3.72-.87c-.59,0-1.34.05-2.25.14s-1.83.22-2.75.38H190v-3.75l1.35-.23c.51-.08,1-.14,1.55-.19l1.55-.12c.5,0,1-.05,1.38-.05,3,0,5.2.58,6.7,1.74a6.11,6.11,0,0,1,2.26,5.18,6.26,6.26,0,0,1-1.06,3.7,5.41,5.41,0,0,1-3,2.1v.24a5.81,5.81,0,0,1,3.49,2.09,6.22,6.22,0,0,1,1.26,4,6.58,6.58,0,0,1-2.47,5.55Q200.51,235.61,195.8,235.61Z" transform="translate(-16.43 -46.66)"/>
  </g>
</svg>
