<?xml version="1.0" encoding="utf-8"?>
<!-- Generator: Adobe Illustrator 23.0.4, SVG Export Plug-In . SVG Version: 6.00 Build 0)  -->
<svg version="1.1" id="Layer_1" xmlns="http://www.w3.org/2000/svg" xmlns:xlink="http://www.w3.org/1999/xlink" x="0px" y="0px"
	 viewBox="0 0 672 630" style="enable-background:new 0 0 672 630;" xml:space="preserve">
<style type="text/css">
	.st0{fill:none;stroke:#4B2E83;stroke-width:8;stroke-linecap:round;stroke-linejoin:round;stroke-miterlimit:10;}
	
		.st1{fill:none;stroke:#4B2E83;stroke-width:5;stroke-linecap:round;stroke-linejoin:round;stroke-miterlimit:10;stroke-dasharray:12;}
	.st2{fill:#4B2E83;}
</style>
<polyline class="st0" points="123,584 319.3,584 353.5,546 622,546 "/>
<polyline class="st0" points="123,496.4 319.3,496.4 353.5,458.5 622,458.5 "/>
<polyline class="st0" points="123,408.8 319.3,408.8 353.5,370.9 622,370.9 "/>
<polyline class="st0" points="123,321.2 319.3,321.2 353.5,283.3 622,283.3 "/>
<polyline class="st0" points="123,233.7 319.3,233.7 353.5,195.7 622,195.7 "/>
<line class="st0" x1="123" y1="146.1" x2="319.3" y2="146.1"/>
<line class="st1" x1="325" y1="506.6" x2="344.3" y2="532.9"/>
<line class="st1" x1="325" y1="419.1" x2="344.3" y2="444.4"/>
<line class="st1" x1="325" y1="331.5" x2="344.3" y2="357.7"/>
<line class="st1" x1="325" y1="243.9" x2="344.3" y2="269.2"/>
<line class="st1" x1="325" y1="156.3" x2="344.3" y2="182.6"/>
<g>
	<path class="st2" d="M72.2,484.1H72l-7.8,2.9h-0.4l-0.8-3.7V483l10.7-6h5v34h-6.5V484.1z"/>
</g>
<g>
	<path class="st2" d="M64.2,419.1c0-1.7,0.2-3.1,0.7-4.3c0.5-1.2,1.2-2.3,2.1-3.3c0.9-1,2-1.8,3.2-2.6c1.2-0.8,2.6-1.6,4.1-2.3
		c2.1-1.1,3.7-2.2,4.8-3.2c1.1-1,1.6-2.2,1.6-3.7c0-1.7-0.5-2.9-1.6-3.6c-1.1-0.8-2.7-1.1-5-1.1c-1.4,0-2.8,0.1-4.3,0.3
		c-1.5,0.2-2.9,0.5-4.2,0.8l-0.6-5.3c2.2-0.4,4.1-0.7,5.7-0.9s3.2-0.3,4.7-0.3c4,0,7,0.8,8.9,2.4c1.9,1.6,2.8,4,2.8,7.1
		c0,1.3-0.2,2.6-0.6,3.6c-0.4,1.1-0.9,2.1-1.7,2.9c-0.7,0.9-1.6,1.7-2.6,2.5c-1,0.8-2.2,1.5-3.5,2.2c-1.2,0.7-2.3,1.3-3.3,1.9
		c-1,0.6-1.9,1.2-2.6,1.8c-0.7,0.6-1.3,1.2-1.7,1.8c-0.4,0.6-0.6,1.2-0.6,1.9v1.2h16.6v5.1H64.2V419.1z"/>
</g>
<g>
	<path class="st2" d="M72.8,338.3c-0.7,0-1.5,0-2.2,0c-0.8,0-1.5-0.1-2.2-0.1c-0.7-0.1-1.4-0.1-2-0.2c-0.6-0.1-1.2-0.2-1.6-0.3v-5
		h0.2c0.4,0.1,0.8,0.2,1.4,0.3c0.6,0.1,1.2,0.2,1.9,0.2c0.6,0.1,1.3,0.1,1.9,0.2c0.6,0,1.2,0,1.7,0c2.8,0,4.9-0.4,6-1.3
		c1.2-0.8,1.8-2.2,1.8-4.1c0-1.8-0.6-3.2-1.8-4c-1.2-0.8-3.3-1.2-6.2-1.2h-3.1v-4.6h3.1c2.6,0,4.5-0.4,5.6-1.2
		c1.1-0.8,1.6-2,1.6-3.8c0-1.7-0.5-3-1.6-3.7c-1-0.8-2.8-1.1-5.2-1.1c-0.8,0-1.9,0.1-3.2,0.2c-1.3,0.1-2.6,0.3-3.9,0.5h-0.2v-5
		c0.6-0.1,1.2-0.2,1.9-0.3c0.7-0.1,1.4-0.2,2.2-0.3c0.7-0.1,1.5-0.1,2.2-0.2c0.7,0,1.4-0.1,1.9-0.1c4.2,0,7.3,0.8,9.4,2.3
		c2.1,1.5,3.2,3.8,3.2,6.8c0,1.9-0.5,3.6-1.5,4.9c-1,1.3-2.4,2.3-4.3,2.8v0.3c2.1,0.4,3.7,1.3,4.9,2.8c1.2,1.4,1.8,3.2,1.8,5.2
		c0,3.2-1.2,5.7-3.5,7.3C80.5,337.5,77.2,338.3,72.8,338.3z"/>
</g>
<g>
	<path class="st2" d="M63.1,240.7v-0.4l11.4-23.1h0.2l6.4,0.6l0.2,0.6l-11.5,20.9v0.2h9.8l1.6-9.7h4.6v9.7H91v5h-5.1v7.2h-6.4v-7.2
		H64L63.1,240.7z"/>
</g>
<g>
	<path class="st2" d="M72.6,166.2c-1.3,0-2.6-0.1-4-0.2c-1.3-0.1-2.7-0.3-4.1-0.5v-5h1.3c1.1,0.2,2.1,0.4,3.1,0.5
		c1,0.1,1.9,0.1,2.8,0.1c2.7,0,4.7-0.4,6.1-1.3c1.3-0.9,2-2.4,2-4.5c0-1-0.2-1.8-0.6-2.5c-0.4-0.7-1-1.2-1.9-1.6
		c-0.8-0.4-2-0.7-3.3-0.9c-1.4-0.2-3-0.3-5-0.3h-3.5l-0.6-0.6l1.3-17.8h18.5v5.1H71.3l-0.5,8.5c2.7,0,5,0.2,7,0.6
		c2,0.4,3.6,0.9,5,1.7c1.3,0.8,2.3,1.8,2.9,3.1c0.6,1.3,1,2.9,1,4.8c0,2-0.4,3.7-1.1,5c-0.7,1.3-1.7,2.4-3,3.3
		c-1.3,0.9-2.8,1.5-4.5,1.8S74.6,166.2,72.6,166.2z"/>
</g>
<g>
	<path class="st2" d="M192.7,46.4h6.8l4.8,21.6l1.2,6.3h0.5l1.4-6.3l5.5-21.6h6.5l5.5,21.6l1.4,6.3h0.5l1.2-6.3l4.8-21.6h6.8
		L230.8,81h-8.5l-4.9-19.1l-1.2-7.2h-0.4l-1.2,7.2l-5,19h-8.5L192.7,46.4z"/>
</g>
<g>
	<path class="st2" d="M485.4,46.4h23.2v5.2h-16.8V61h15.4v5.2h-15.4v9.6H509V81h-23.6V46.4z"/>
</g>
<g>
	<path class="st2" d="M57.5,570.8H62v29.5h17.1v3.3H57.5V570.8z"/>
	<path class="st2" d="M84.3,570.8h4.5v29.5H106v3.3H84.3V570.8z"/>
</g>
<g>
</g>
<g>
</g>
<g>
</g>
<g>
</g>
<g>
</g>
<g>
</g>
<g>
</g>
<g>
</g>
<g>
</g>
<g>
</g>
<g>
</g>
<g>
</g>
<g>
</g>
<g>
</g>
<g>
</g>
</svg>
