<?xml version="1.0" encoding="utf-8"?>
<!-- Generator: Adobe Illustrator 23.0.4, SVG Export Plug-In . SVG Version: 6.00 Build 0)  -->
<svg version="1.1" id="Layer_1" xmlns="http://www.w3.org/2000/svg" xmlns:xlink="http://www.w3.org/1999/xlink" x="0px" y="0px"
	 viewBox="0 0 340.8 316" style="enable-background:new 0 0 340.8 316;" xml:space="preserve">
<style type="text/css">
	.st0{fill:#FFFFFF;stroke:#4B2E83;stroke-width:8;stroke-miterlimit:10;}
	.st1{fill:#4B2E83;}
	.st2{font-family:'EncodeSansNormal-SemiBold';}
	.st3{font-size:26px;}
</style>
<g>
	<path class="st0" d="M319.3,124.7H146.6c-7.2,0-18.6,3.2-25.3,7.1l-96.1,55.8c-6.7,3.9-6.3,7.1,0.9,7.1h172.7
		c7.2,0,18.6-3.2,25.3-7.1l96.1-55.8C326.8,127.9,326.5,124.7,319.3,124.7z"/>
</g>
<g>
	<path class="st0" d="M319.3,218H146.6c-7.2,0-18.6,3.2-25.3,7.1l-96.1,55.8c-6.7,3.9-6.3,7.1,0.9,7.1h172.7
		c7.2,0,18.6-3.2,25.3-7.1l96.1-55.8C326.8,221.2,326.5,218,319.3,218z"/>
</g>
<g>
	<path class="st0" d="M319.3,31.5H146.6c-7.2,0-18.6,3.2-25.3,7.1L25.2,94.4c-6.7,3.9-6.3,7.1,0.9,7.1h172.7
		c7.2,0,18.6-3.2,25.3-7.1l96.1-55.8C326.8,34.7,326.5,31.5,319.3,31.5z"/>
</g>
<text transform="matrix(0.7206 0 0 1 143.9277 166.5)" class="st1 st2 st3">Middle</text>
<text transform="matrix(0.7206 0 0 1 146.9277 72.5)" class="st1 st2 st3">Top</text>
<text transform="matrix(0.7206 0 0 1 143.9277 260.5)" class="st1 st2 st3">Bottom</text>
</svg>
