<?xml version="1.0" encoding="utf-8"?>
<!-- Generator: Adobe Illustrator 23.0.4, SVG Export Plug-In . SVG Version: 6.00 Build 0)  -->
<svg version="1.1" id="Layer_1" xmlns="http://www.w3.org/2000/svg" xmlns:xlink="http://www.w3.org/1999/xlink" x="0px" y="0px"
	 viewBox="0 0 672 630" style="enable-background:new 0 0 672 630;" xml:space="preserve">
<style type="text/css">
	.st0{fill:none;stroke:#4B2E83;stroke-width:8;stroke-linecap:round;stroke-linejoin:round;stroke-miterlimit:10;}
	.st1{fill:#4B2E83;}
	
		.st2{fill:none;stroke:#4B2E83;stroke-width:5;stroke-linecap:round;stroke-linejoin:round;stroke-miterlimit:10;stroke-dasharray:12;}
	.st3{opacity:0.5;fill:none;stroke:#000000;stroke-width:8;stroke-linecap:round;stroke-miterlimit:10;stroke-dasharray:30;}
</style>
<line class="st0" x1="105.5" y1="583.5" x2="400" y2="583.5"/>
<line class="st0" x1="105.5" y1="507.9" x2="283.6" y2="507.9"/>
<line class="st0" x1="221.9" y1="432.2" x2="400" y2="432.2"/>
<line class="st0" x1="105.5" y1="356.6" x2="283.6" y2="356.6"/>
<line class="st0" x1="221.9" y1="280.9" x2="400" y2="280.9"/>
<line class="st0" x1="105.5" y1="210.5" x2="283.6" y2="210.5"/>
<line class="st0" x1="106" y1="54" x2="284.1" y2="54"/>
<line class="st0" x1="221.9" y1="134.9" x2="400" y2="134.9"/>
<g>
	<path class="st1" d="M39.3,523.7l12.8-35.2h6.5l12.8,35.2v0.3h-4.2l-3.9-10.6H47.4L43.6,524h-4.2V523.7z M62.1,509.8l-4.4-12
		l-2.2-6.2h-0.4l-2.2,6.2l-4.4,12H62.1z"/>
</g>
<g>
	<path class="st1" d="M57.5,373.4c-10.7,0-16.1-6-16.1-18.1c0-6.2,1.3-10.8,4-13.8c2.7-3,6.7-4.5,12-4.5c1.1,0,2.3,0.1,3.7,0.2
		c1.4,0.1,2.8,0.3,4.2,0.6v3.6c-1.5-0.3-2.9-0.4-4.2-0.6c-1.2-0.1-2.3-0.2-3.3-0.2c-4.2,0-7.3,1.2-9.2,3.5c-2,2.3-2.9,6-2.9,11.1
		c0,5,1,8.7,2.9,11c1.9,2.3,4.9,3.5,9,3.5c0.5,0,1.1,0,1.8-0.1c0.7,0,1.4-0.1,2.1-0.2c0.7-0.1,1.4-0.2,2.1-0.3
		c0.7-0.1,1.3-0.2,1.8-0.4v3.6c-1.1,0.3-2.4,0.5-3.9,0.7C60,373.3,58.7,373.4,57.5,373.4z"/>
</g>
<g>
	<path class="st1" d="M43.3,190.5h22.6v3.6H47.5v12.2h17v3.6h-17v12.7h18.7v3.6h-23V190.5z"/>
</g>
<g>
	<path class="st1" d="M459.7,447.5c-3.6,0-7.4-0.2-11.5-0.7v-35c2.3-0.3,4.3-0.4,6-0.5c1.7-0.1,3.3-0.1,4.9-0.1
		c4.7,0,8.1,0.8,10.2,2.3c2.1,1.5,3.1,4,3.1,7.3c0,2.1-0.5,3.9-1.6,5.4s-2.5,2.4-4.5,2.8v0.2c2.3,0.4,4.1,1.4,5.4,2.9
		s1.9,3.4,1.9,5.8C473.7,444.2,469,447.5,459.7,447.5z M460,427.4c2.9,0,5-0.5,6.3-1.5s1.9-2.7,1.9-5.1c0-2.3-0.7-4-2-5
		c-1.3-1-3.6-1.5-6.8-1.5c-1.4,0-2.7,0-3.8,0.1c-1.1,0-2.2,0.2-3.2,0.3v12.7H460z M459.7,444.2c3.3,0,5.7-0.6,7.3-1.7
		c1.6-1.1,2.4-2.8,2.4-5.2c0-2.3-0.7-4-2.2-5.1c-1.5-1.1-3.8-1.7-6.9-1.7h-7.9v13.2C453.8,444,456.3,444.2,459.7,444.2z"/>
</g>
<g>
	<path class="st1" d="M557.3,560.5h3.7l18.2,24.8l2.8,4.2h0.3v-29h3.9V596h-3.7l-18.3-24.8l-2.7-4.2l-0.3,0V596h-3.9V560.5z"/>
	<path class="st1" d="M592.6,591.2c0-1.6,0.2-3,0.6-4.2c0.4-1.2,1.1-2.4,1.9-3.4c0.8-1,1.9-2,3.2-2.9c1.3-0.9,2.7-1.8,4.4-2.8
		c2.5-1.4,4.4-2.7,5.5-3.9c1.1-1.2,1.7-2.7,1.7-4.3c0-4-2.4-6-7.2-6c-1.3,0-2.7,0.1-4.1,0.3c-1.4,0.2-2.9,0.5-4.4,0.9l-0.5-3.7
		c1.9-0.4,3.7-0.8,5.2-1c1.6-0.2,3-0.3,4.5-0.3c7.2,0,10.8,3.1,10.8,9.4c0,1.2-0.2,2.4-0.5,3.4s-0.9,2-1.6,2.8
		c-0.7,0.9-1.6,1.7-2.7,2.5c-1.1,0.8-2.3,1.6-3.8,2.5c-2.9,1.7-5.1,3.3-6.4,4.7c-1.4,1.4-2.1,3.1-2.1,4.8v2.1h17.2v3.6h-21.6V591.2z
		"/>
	<path class="st1" d="M625.8,596.7l-3.6-0.7v-0.7l12.7-31.1h-16.7l-0.3-3.4l0.3-0.4h20.4l0.8,2.3v1.2L626.8,596L625.8,596.7z"/>
</g>
<g>
	<path class="st1" d="M557.3,460.5h3.7l18.2,24.8l2.8,4.2h0.3v-29h3.9V496h-3.7l-18.3-24.8l-2.7-4.2l-0.3,0V496h-3.9V460.5z"/>
	<path class="st1" d="M592.6,491.2c0-1.6,0.2-3,0.6-4.2c0.4-1.2,1.1-2.4,1.9-3.4c0.8-1,1.9-2,3.2-2.9c1.3-0.9,2.7-1.8,4.4-2.8
		c2.5-1.4,4.4-2.7,5.5-3.9c1.1-1.2,1.7-2.7,1.7-4.3c0-4-2.4-6-7.2-6c-1.3,0-2.7,0.1-4.1,0.3c-1.4,0.2-2.9,0.5-4.4,0.9l-0.5-3.7
		c1.9-0.4,3.7-0.8,5.2-1c1.6-0.2,3-0.3,4.5-0.3c7.2,0,10.8,3.1,10.8,9.4c0,1.2-0.2,2.4-0.5,3.4s-0.9,2-1.6,2.8
		c-0.7,0.9-1.6,1.7-2.7,2.5c-1.1,0.8-2.3,1.6-3.8,2.5c-2.9,1.7-5.1,3.3-6.4,4.7c-1.4,1.4-2.1,3.1-2.1,4.8v2.1h17.2v3.6h-21.6V491.2z
		"/>
	<path class="st1" d="M631.7,496.2c-4,0-7.1-0.8-9.2-2.4c-2.1-1.6-3.2-3.9-3.2-7c0-1.4,0.2-2.6,0.6-3.6c0.4-1,0.9-1.9,1.5-2.7
		s1.3-1.4,2.1-1.9c0.8-0.5,1.5-0.9,2.2-1.2c-0.8-0.4-1.5-0.8-2.1-1.3c-0.6-0.5-1.2-1.1-1.7-1.8c-0.5-0.7-0.8-1.4-1.1-2.3
		s-0.4-1.9-0.4-3c0-1.5,0.3-2.8,0.8-3.9c0.6-1.1,1.3-2.1,2.4-2.9c1-0.8,2.2-1.3,3.6-1.7c1.4-0.4,2.9-0.6,4.6-0.6s3.2,0.2,4.5,0.6
		c1.3,0.4,2.5,1,3.5,1.7c1,0.8,1.7,1.7,2.2,2.9s0.8,2.5,0.8,4c0,1.2-0.2,2.3-0.5,3.2c-0.3,0.9-0.7,1.8-1.3,2.5
		c-0.5,0.7-1.1,1.3-1.8,1.8c-0.7,0.5-1.3,0.9-2,1.3c1,0.4,1.8,0.8,2.7,1.3c0.8,0.5,1.5,1.1,2.1,1.8c0.6,0.7,1.1,1.5,1.4,2.4
		c0.4,0.9,0.5,2,0.5,3.2c0,3.1-1.1,5.4-3.2,7.1C638.7,495.4,635.7,496.2,631.7,496.2z M629.1,478.8c-0.5,0.2-1.1,0.5-1.7,0.9
		c-0.6,0.4-1.2,0.9-1.8,1.5c-0.6,0.6-1.1,1.3-1.5,2.2c-0.4,0.9-0.6,1.9-0.6,3.1c0,2.2,0.8,3.8,2.3,4.9c1.5,1.1,3.5,1.6,6,1.6
		c2.5,0,4.4-0.5,6-1.6c1.5-1.1,2.3-2.6,2.3-4.6c0-1.2-0.2-2.1-0.7-2.9c-0.4-0.8-1.1-1.5-1.8-2c-0.8-0.5-1.7-1-2.7-1.4
		c-1-0.4-2.2-0.7-3.3-1.1L629.1,478.8z M624.4,469.3c0,1.2,0.2,2.1,0.7,2.9c0.5,0.8,1.1,1.4,1.9,2c0.8,0.6,1.7,1,2.8,1.4
		c1.1,0.4,2.2,0.7,3.4,1.1l0.7,0.2c0.5-0.3,1-0.6,1.6-1c0.6-0.4,1.2-0.9,1.7-1.5c0.5-0.6,0.9-1.3,1.3-2.1s0.5-1.8,0.5-2.9
		c0-2-0.7-3.6-2-4.6c-1.3-1-3.1-1.5-5.2-1.5c-2.1,0-3.9,0.5-5.3,1.5C625.1,465.7,624.4,467.2,624.4,469.3z"/>
</g>
<g>
	<path class="st1" d="M557.3,202.5h3.7l18.2,24.8l2.8,4.2h0.3v-29h3.9V238h-3.7l-18.3-24.8l-2.7-4.2l-0.3,0V238h-3.9V202.5z"/>
	<path class="st1" d="M592.6,233.2c0-1.6,0.2-3,0.6-4.2c0.4-1.2,1.1-2.4,1.9-3.4c0.8-1,1.9-2,3.2-2.9c1.3-0.9,2.7-1.8,4.4-2.8
		c2.5-1.4,4.4-2.7,5.5-3.9c1.1-1.2,1.7-2.7,1.7-4.3c0-4-2.4-6-7.2-6c-1.3,0-2.7,0.1-4.1,0.3c-1.4,0.2-2.9,0.5-4.4,0.9l-0.5-3.7
		c1.9-0.4,3.7-0.8,5.2-1c1.6-0.2,3-0.3,4.5-0.3c7.2,0,10.8,3.1,10.8,9.4c0,1.2-0.2,2.4-0.5,3.4s-0.9,2-1.6,2.8
		c-0.7,0.9-1.6,1.7-2.7,2.5c-1.1,0.8-2.3,1.6-3.8,2.5c-2.9,1.7-5.1,3.3-6.4,4.7c-1.4,1.4-2.1,3.1-2.1,4.8v2.1h17.2v3.6h-21.6V233.2z
		"/>
	<path class="st1" d="M631.1,202c4.3,0,7.5,1.4,9.6,4.1c2.2,2.7,3.3,6.8,3.3,12.2c0,6.5-1.4,11.5-4.2,15c-2.8,3.5-6.9,5.3-12.2,5.3
		c-1,0-2-0.1-3-0.2c-1-0.1-2.2-0.3-3.3-0.6l0.3-3.4c1.2,0.3,2.2,0.5,3.2,0.6c0.9,0.1,1.9,0.2,2.8,0.2c3.7,0,6.5-1.2,8.6-3.6
		c2-2.4,3.2-6,3.6-10.6c-1.3,1.1-2.8,1.9-4.4,2.5c-1.6,0.6-3.3,0.9-4.9,0.9c-1.8,0-3.4-0.2-4.8-0.7c-1.4-0.5-2.6-1.2-3.6-2.1
		c-1-0.9-1.8-2-2.3-3.3s-0.8-2.7-0.8-4.3c0-1.8,0.3-3.5,0.9-4.9c0.6-1.5,1.4-2.7,2.5-3.8s2.4-1.8,3.9-2.4
		C627.6,202.2,629.2,202,631.1,202z M631.1,221.2c1.5,0,3-0.3,4.6-1c1.6-0.7,2.9-1.5,4.1-2.6c-0.1-4.3-0.8-7.4-2.2-9.4
		c-1.4-2-3.5-3-6.5-3c-2.4,0-4.4,0.8-5.8,2.3c-1.4,1.5-2.1,3.6-2.1,6.3c0,2.4,0.7,4.2,2.1,5.5C626.7,220.6,628.6,221.2,631.1,221.2z
		"/>
</g>
<g>
	<path class="st1" d="M457.2,294.5c-1.9,0-3.6-0.1-5.2-0.2c-1.6-0.1-2.9-0.3-3.8-0.5v-35.3c0.8-0.1,1.7-0.1,2.6-0.2
		c0.9-0.1,1.8-0.1,2.7-0.2c0.9,0,1.7-0.1,2.5-0.1c0.8,0,1.5,0,2.2,0c6.3,0,10.9,1.5,13.9,4.4c2.9,2.9,4.4,7.5,4.4,13.8
		c0,3.2-0.4,5.9-1.1,8.2c-0.8,2.3-1.9,4.2-3.5,5.7c-1.6,1.5-3.6,2.6-6,3.3C463.5,294.2,460.6,294.5,457.2,294.5z M458.5,290.9
		c2.4,0,4.4-0.3,6.1-0.8c1.7-0.6,3.1-1.4,4.2-2.6c1.1-1.2,1.9-2.7,2.4-4.6c0.5-1.9,0.8-4.1,0.8-6.6c0-2.6-0.3-4.8-0.8-6.6
		c-0.5-1.8-1.3-3.3-2.4-4.5c-1.1-1.2-2.5-2-4.2-2.6c-1.7-0.6-3.7-0.8-6-0.8c-0.8,0-1.8,0-3,0.1c-1.2,0.1-2.2,0.1-3.2,0.2v28.5
		c1.2,0.2,2.2,0.3,3.1,0.3C456.5,290.9,457.5,290.9,458.5,290.9z"/>
</g>
<g>
	<path class="st1" d="M448.3,111.5h22.3v3.6h-18v12.6H469v3.6h-16.5V147h-4.3V111.5z"/>
</g>
<g>
	<path class="st1" d="M57.9,69.4c-11,0-16.5-6-16.5-18.1c0-12.2,5.6-18.3,16.9-18.3c1.4,0,2.9,0.1,4.4,0.3s3.1,0.5,4.6,0.9v3.6
		c-1.9-0.4-3.5-0.7-4.8-0.9c-1.3-0.1-2.6-0.2-3.8-0.2c-4.5,0-7.8,1.2-9.8,3.5c-2.1,2.4-3.1,6-3.1,11.1c0,5,1,8.6,2.9,11
		c2,2.4,5,3.5,9.2,3.5c0.7,0,1.6-0.1,2.7-0.2c1-0.1,2.1-0.2,3-0.4V51h4v17c-0.8,0.2-1.6,0.4-2.5,0.6c-0.9,0.2-1.7,0.4-2.6,0.5
		c-0.9,0.1-1.7,0.2-2.5,0.3C59.3,69.4,58.6,69.4,57.9,69.4z"/>
</g>
<line class="st2" x1="221.5" y1="123.5" x2="287.5" y2="58.5"/>
<line class="st2" x1="221.5" y1="423.5" x2="284.5" y2="363.5"/>
<line class="st2" x1="283.5" y1="498.5" x2="220.5" y2="440.5"/>
<line class="st2" x1="284.5" y1="348.5" x2="221.5" y2="287.5"/>
<line class="st2" x1="283.5" y1="202.5" x2="221.5" y2="142.5"/>
<line class="st2" x1="221.5" y1="273.5" x2="283.5" y2="218.5"/>
<line class="st2" x1="224.5" y1="573.5" x2="284.5" y2="517.5"/>
<line class="st3" x1="651" y1="546" x2="28" y2="546"/>
<line class="st3" x1="651" y1="399" x2="28" y2="399"/>
<g>
</g>
<g>
</g>
<g>
</g>
<g>
</g>
<g>
</g>
<g>
</g>
<g>
</g>
<g>
</g>
<g>
</g>
<g>
</g>
<g>
</g>
<g>
</g>
<g>
</g>
<g>
</g>
<g>
</g>
</svg>
